Coordinates
version=1
nRows=5
nColumns=40
inDegrees=yes

Units are S.I. units (second, meters, Newtons, ...)
Angles are in degrees.

endheader
time	pelvis_tilt	pelvis_list	pelvis_rotation	pelvis_tx	pelvis_ty	pelvis_tz	hip_flexion_r	hip_adduction_r	hip_rotation_r	knee_angle_r	knee_angle_r_beta	ankle_angle_r	subtalar_angle_r	mtp_angle_r	hip_flexion_l	hip_adduction_l	hip_rotation_l	knee_angle_l	knee_angle_l_beta	ankle_angle_l	subtalar_angle_l	mtp_angle_l	lumbar_extension	lumbar_bending	lumbar_rotation	arm_flex_r	arm_add_r	arm_rot_r	elbow_flex_r	pro_sup_r	wrist_flex_r	wrist_dev_r	arm_flex_l	arm_add_l	arm_rot_l	elbow_flex_l	pro_sup_l	wrist_flex_l	wrist_dev_l
     29.28000000	     -2.58891528	     -0.89007133	     -1.93670925	      1.09274965	      0.92209264	      0.40675015	     29.40453302	     -7.16070505	    -13.66634574	     21.06950568	     21.06950568	      4.50349082	     -1.76830703	      7.03497850	     -3.41686940	     -0.00414362	    -16.57340878	      9.31002729	      9.31002729	     17.81207298	      1.51666449	    -10.94181362	     -9.08155747	      1.79944145	      1.01923964	    -17.64052036	    -12.77213230	    -17.62416312	     17.86713905	     47.73037568	      0.00000000	      0.00000000	     32.65257684	    -18.31834636	     -8.00071867	     64.68538638	     47.61282091	      0.00000000	      0.00000000
     29.29157143	     -2.59819270	     -0.89973598	     -1.90016863	      1.09389039	      0.92021462	      0.40851363	     28.92829171	     -6.73552016	    -13.77742183	     20.60153844	     20.60153844	      3.96470020	     -1.97482839	      6.15684435	     -4.12010289	     -0.14898087	    -16.63208046	      9.41819642	      9.41819642	     18.62270913	      1.89900863	    -10.32274469	     -8.94988648	      1.88162988	      1.01643808	    -18.89125439	    -12.71423432	    -18.32044790	     17.42606448	     47.84200594	      0.00000000	      0.00000000	     32.24378238	    -18.50708049	     -8.53163497	     67.87761997	     47.69393551	      0.00000000	      0.00000000
     29.30314286	     -2.63069222	     -0.97545706	     -1.84385361	      1.09500045	      0.91840671	      0.41040286	     28.52904707	     -6.30137585	    -13.77853805	     20.51871255	     20.51871255	      3.55893827	     -2.33546377	      5.71737720	     -4.76392489	     -0.37766961	    -16.53690514	      9.55810676	      9.55810676	     19.19994063	      1.94292724	    -10.04733449	     -8.78675344	      2.02880134	      1.49862649	    -20.30676131	    -12.53741618	    -18.51679375	     16.99120662	     47.87423766	      0.00000000	      0.00000000	     32.41284331	    -18.22536257	     -8.68157311	     69.96746420	     47.73958486	      0.00000000	      0.00000000
     29.31471429	     -2.74082846	     -1.05986345	     -1.70057613	      1.09620156	      0.91667527	      0.41232415	     28.28259148	     -5.98416689	    -13.81218762	     20.84911997	     20.84911997	      3.43203041	     -2.54071262	      5.52799436	     -5.32227382	     -0.63524101	    -16.35138852	      9.66606888	      9.66606888	     19.56253492	      1.93944653	    -10.01585777	     -8.41775940	      2.23199541	      1.42037121	    -21.32930299	    -12.51516909	    -18.59408136	     16.68607708	     47.88655132	      0.00000000	      0.00000000	     32.60127957	    -18.51486247	     -8.84736596	     70.61336229	     47.76369319	      0.00000000	      0.00000000
     29.32628571	     -2.77645378	     -1.22175492	     -1.63012661	      1.09742126	      0.91516176	      0.41458915	     27.87902810	     -5.44367587	    -13.24757568	     21.04157773	     21.04157773	      1.95096222	     -4.11387654	      1.80202354	     -5.65124725	     -1.13661083	    -16.56890699	     10.55908693	     10.55908693	     21.07926378	      2.62886393	     -7.62927586	     -8.46287065	      2.39503400	      0.93477563	    -22.21953451	    -12.46576640	    -19.39303259	     18.10983674	     47.90528932	      0.00000000	      0.00000000	     30.51591891	    -19.22072688	     -9.72724750	     77.07358988	     47.92176326	      0.00000000	      0.00000000
